<svg width="51" height="12" viewBox="0 0 51 12" fill="none" xmlns="http://www.w3.org/2000/svg">
<path d="M4.176 4.728H2.94V6.852C2.94 7.092 3.036 7.244 3.228 7.308C3.42 7.372 3.736 7.392 4.176 7.368V9C3.032 9.12 2.24 9.012 1.8 8.676C1.36 8.332 1.14 7.724 1.14 6.852V4.728H0.18V3H1.14V1.86L2.94 1.32V3H4.176V4.728ZM11.9123 3H13.8323L11.9123 9H10.2323L9.27234 5.796L8.31234 9H6.63234L4.71234 3H6.63234L7.49634 6.216L8.43234 3H10.1123L11.0483 6.216L11.9123 3ZM16.2027 2.16C15.9947 2.368 15.7427 2.472 15.4467 2.472C15.1507 2.472 14.8947 2.368 14.6787 2.16C14.4707 1.944 14.3667 1.688 14.3667 1.392C14.3667 1.096 14.4707 0.844 14.6787 0.636C14.8947 0.42 15.1507 0.312 15.4467 0.312C15.7427 0.312 15.9947 0.42 16.2027 0.636C16.4187 0.844 16.5267 1.096 16.5267 1.392C16.5267 1.688 16.4187 1.944 16.2027 2.16ZM14.5467 9V3H16.3467V9H14.5467ZM22.0199 3H23.8199V11.4H22.0199V8.436C21.5959 8.924 20.9999 9.168 20.2319 9.168C19.4399 9.168 18.7639 8.864 18.2039 8.256C17.6439 7.64 17.3639 6.888 17.3639 6C17.3639 5.112 17.6439 4.364 18.2039 3.756C18.7639 3.14 19.4399 2.832 20.2319 2.832C20.9999 2.832 21.5959 3.076 22.0199 3.564V3ZM19.5599 7.068C19.8239 7.332 20.1679 7.464 20.5919 7.464C21.0159 7.464 21.3599 7.332 21.6239 7.068C21.8879 6.804 22.0199 6.448 22.0199 6C22.0199 5.552 21.8879 5.196 21.6239 4.932C21.3599 4.668 21.0159 4.536 20.5919 4.536C20.1679 4.536 19.8239 4.668 19.5599 4.932C19.2959 5.196 19.1639 5.552 19.1639 6C19.1639 6.448 19.2959 6.804 19.5599 7.068ZM26.9645 8.832C26.7405 9.056 26.4725 9.168 26.1605 9.168C25.8485 9.168 25.5805 9.056 25.3565 8.832C25.1325 8.608 25.0205 8.34 25.0205 8.028C25.0205 7.716 25.1325 7.448 25.3565 7.224C25.5805 7 25.8485 6.888 26.1605 6.888C26.4725 6.888 26.7405 7 26.9645 7.224C27.1885 7.448 27.3005 7.716 27.3005 8.028C27.3005 8.34 27.1885 8.608 26.9645 8.832ZM30.9033 9.168C29.9913 9.168 29.2313 8.864 28.6233 8.256C28.0233 7.648 27.7233 6.896 27.7233 6C27.7233 5.104 28.0233 4.352 28.6233 3.744C29.2313 3.136 29.9913 2.832 30.9033 2.832C31.4793 2.832 32.0073 2.972 32.4873 3.252C32.9753 3.532 33.3513 3.904 33.6153 4.368L32.0433 5.28C31.8273 4.832 31.4393 4.608 30.8793 4.608C30.4873 4.608 30.1633 4.74 29.9073 5.004C29.6513 5.26 29.5233 5.592 29.5233 6C29.5233 6.408 29.6513 6.744 29.9073 7.008C30.1633 7.264 30.4873 7.392 30.8793 7.392C31.4473 7.392 31.8353 7.168 32.0433 6.72L33.6153 7.62C33.3513 8.092 32.9793 8.468 32.4993 8.748C32.0193 9.028 31.4873 9.168 30.9033 9.168ZM34.3397 9V0.24H36.1397V9H34.3397ZM41.3329 3H43.1329V9H41.3329V8.436C40.9729 8.924 40.4009 9.168 39.6169 9.168C38.9769 9.168 38.4409 8.948 38.0089 8.508C37.5849 8.068 37.3729 7.46 37.3729 6.684V3H39.1729V6.42C39.1729 6.772 39.2689 7.044 39.4609 7.236C39.6609 7.42 39.9129 7.512 40.2169 7.512C40.5609 7.512 40.8329 7.408 41.0329 7.2C41.2329 6.992 41.3329 6.684 41.3329 6.276V3ZM48.041 2.832C48.833 2.832 49.509 3.14 50.069 3.756C50.629 4.364 50.909 5.112 50.909 6C50.909 6.888 50.629 7.64 50.069 8.256C49.509 8.864 48.833 9.168 48.041 9.168C47.273 9.168 46.677 8.924 46.253 8.436V9H44.453V0.599999H46.253V3.564C46.677 3.076 47.273 2.832 48.041 2.832ZM46.649 7.068C46.921 7.332 47.265 7.464 47.681 7.464C48.097 7.464 48.437 7.332 48.701 7.068C48.973 6.804 49.109 6.448 49.109 6C49.109 5.552 48.973 5.196 48.701 4.932C48.437 4.668 48.097 4.536 47.681 4.536C47.265 4.536 46.921 4.668 46.649 4.932C46.385 5.196 46.253 5.552 46.253 6C46.253 6.448 46.385 6.804 46.649 7.068Z" fill="#393939"/>
</svg>
